<svg xmlns="http://www.w3.org/2000/svg" xmlns:xlink="http://www.w3.org/1999/xlink" version="1.1" x="0px" y="0px" viewBox="0 0 63.958 79.94749999999999" style="enable-background:new 0 0 63.958 63.958;" xml:space="preserve"><g><path d="M37.837,48.879l-4.015,4.014c0.088-0.282,0.136-0.582,0.136-0.893c0-1.654-1.346-3-3-3h-6   c-0.801,0-1.554,0.312-2.113,0.871l-7.544,7.372c-0.191,0.187-0.3,0.441-0.301,0.709c-0.002,0.268,0.104,0.524,0.293,0.713l5,5   c0.195,0.195,0.451,0.293,0.707,0.293c0.256,0,0.512-0.098,0.707-0.293L26.372,59h8.586c0.801,0,1.554-0.312,2.121-0.879l5-5   c1.17-1.17,1.17-3.072,0-4.242C40.947,47.746,38.969,47.746,37.837,48.879z M40.665,51.707l-5,5C35.479,56.894,35.221,57,34.958,57   h-9c-0.265,0-0.52,0.105-0.707,0.293L21,61.544l-3.578-3.578l6.829-6.673C24.438,51.106,24.695,51,24.958,51h6c0.551,0,1,0.448,1,1   c0,0.552-0.449,1-1,1H29c-0.552,0-1,0.447-1,1s0.448,1,1,1h5.129c0.265,0,0.52-0.106,0.707-0.293l4.415-4.414   c0.377-0.379,1.036-0.379,1.414,0C41.055,50.683,41.055,51.317,40.665,51.707z"/><path d="M48.665,5.293l-5-5c-0.391-0.391-1.023-0.391-1.414,0l-4.665,4.665H29c-0.801,0-1.555,0.312-2.121,0.879l-5,5   c-1.17,1.17-1.17,3.072,0,4.242c0.566,0.566,1.32,0.879,2.122,0.879c0.802,0,1.555-0.312,2.121-0.879l4.015-4.014   C30.047,11.348,30,11.648,30,11.958c0,1.654,1.346,3,3,3h6c0.801,0,1.554-0.312,2.113-0.871l7.544-7.372   c0.191-0.187,0.3-0.441,0.301-0.709C48.96,5.738,48.854,5.481,48.665,5.293z M39.707,12.665c-0.187,0.187-0.444,0.293-0.707,0.293   h-6c-0.551,0-1-0.448-1-1s0.449-1,1-1h1.958c0.552,0,1-0.447,1-1s-0.448-1-1-1h-5.129c-0.265,0-0.52,0.106-0.707,0.293   l-4.415,4.414c-0.377,0.379-1.036,0.379-1.413,0c-0.39-0.39-0.39-1.024,0-1.414l5-5C28.48,7.064,28.737,6.958,29,6.958h9   c0.265,0,0.519-0.105,0.707-0.293l4.251-4.251l3.578,3.578L39.707,12.665z"/><path d="M36.979,29.958h-3v-5c0-0.431-0.275-0.812-0.684-0.948c-0.408-0.137-0.858,0.005-1.116,0.349l-6,8   c-0.228,0.303-0.264,0.708-0.095,1.047c0.169,0.339,0.516,0.553,0.895,0.553h3v5c0,0.431,0.275,0.812,0.684,0.948   c0.104,0.035,0.211,0.052,0.316,0.052c0.309,0,0.607-0.144,0.8-0.4l6-8c0.228-0.303,0.264-0.708,0.095-1.047   C37.704,30.172,37.358,29.958,36.979,29.958z M31.979,35.958v-3c0-0.553-0.448-1-1-1h-2l3-4v3c0,0.553,0.448,1,1,1h2L31.979,35.958   z"/><path d="M31.979,16.958c-8.271,0-15,6.729-15,15s6.729,15,15,15s15-6.729,15-15S40.25,16.958,31.979,16.958z M31.979,44.958   c-7.169,0-13-5.832-13-13s5.831-13,13-13s13,5.832,13,13S39.148,44.958,31.979,44.958z"/></g><text x="0" y="78.958" fill="#000000" font-size="5px" font-weight="bold" font-family="'Helvetica Neue', Helvetica, Arial-Unicode, Arial, Sans-serif">Created by Berkah Icon</text><text x="0" y="83.958" fill="#000000" font-size="5px" font-weight="bold" font-family="'Helvetica Neue', Helvetica, Arial-Unicode, Arial, Sans-serif">from the Noun Project</text></svg>